<svg width="21" height="23" viewBox="0 0 21 23" fill="none" xmlns="http://www.w3.org/2000/svg">
<path d="M3.57031 6.36646H9.75436V7.82273H3.57031V6.36646Z" fill="#00A4D4"/>
<path d="M3.52368 17.5496H7.11756V19.0058H3.52368V17.5496Z" fill="#00A4D4"/>
<path d="M3.52368 13.8374H8.05101V15.2705H3.52368V13.8374Z" fill="#00A4D4"/>
<path d="M3.54712 10.2903H8.70443V11.6526H3.54712V10.2903Z" fill="#00A4D4"/>
<path d="M10.6878 21.6846H1.33021V1.33916H12.6485V5.49753H16.7791V9.04487H18.1093V3.99373L14.1417 0H0V23H10.6883L10.6878 21.6846ZM13.7219 1.17453L16.919 4.39316H13.7219V1.17453Z" fill="#00A4D4"/>
<path d="M15.1218 10.1963C11.9246 10.1963 9.33447 12.8039 9.33447 16.0225C9.33447 19.2412 11.9246 21.8725 15.1218 21.8725C18.3189 21.8725 20.909 19.2649 20.909 16.0463C20.909 12.8271 18.3189 10.1963 15.1218 10.1963ZM17.8058 16.7976H15.169C14.8891 16.7976 14.6553 16.5628 14.6553 16.2805V13.2265C14.6553 12.9448 14.8885 12.7094 15.169 12.7094C15.4494 12.7094 15.6826 12.9442 15.6826 13.2265V15.764H17.8063C18.0862 15.764 18.32 15.9988 18.32 16.2811C18.3189 16.5628 18.1087 16.7976 17.8058 16.7976Z" fill="#00A4D4"/>
</svg>
