<svg width="375" height="812" viewBox="0 0 375 812" fill="none" xmlns="http://www.w3.org/2000/svg">
<path d="M499.649 364.823L401.738 31.9832L183.528 76.6279L499.649 364.823Z" fill="#F1F6FC"/>
<path d="M183.19 76.1655L402.054 31.8317L141.095 -76.9998L183.19 76.1655Z" fill="#F5F6F8"/>
<path d="M321.355 747.736L499.649 364.823L179.285 662.18L321.355 747.736Z" fill="#B8D9EC"/>
<path d="M179.191 662.317L499.649 364.823L126.244 377.042L179.191 662.317Z" fill="#D2E5F3"/>
<path d="M400.532 31.9829L593.001 -77.0001H141.096L400.532 31.9829Z" fill="#F2F3F5"/>
<path d="M499.649 364.432L184.762 76.1655L126.244 376.605L499.649 364.432Z" fill="#E6F0F9"/>
<path d="M321.433 747.751L178.557 662.317L102.906 918.575L321.433 747.751Z" fill="#8DC2E1"/>
<path d="M325.677 1071.74L320.11 747.736L102.907 917.834L325.677 1071.74Z" fill="#6DB1D6"/>
<path d="M183.528 76.1655L141.695 -76.9998H-11.661L183.528 76.1655Z" fill="#F2F3F5"/>
<path d="M-100.369 588.68L126.244 377.089L-128.351 193.985L-100.369 588.68Z" fill="#D9EAF4"/>
<path d="M-70.0812 921.52L102.906 917.463L-100.769 588.68L-70.0812 921.52Z" fill="#9FCDE5"/>
<path d="M179.284 662.317L126.071 376.605L-100.77 588.85L179.284 662.317Z" fill="#C6E0EF"/>
<path d="M103.66 918.575L179.284 661.99L-100.77 588.68L103.66 918.575Z" fill="#ACD2E7"/>
<path d="M125.051 376.605L183.528 76.1655L-128.35 193.902L125.051 376.605Z" fill="#EAF3FA"/>
<path d="M183.528 76.6936L-11.3958 -76.9999L-128.35 193.985L183.528 76.6936Z" fill="#F4F8FB"/>
<mask id="mask0_10_1889" style="mask-type:alpha" maskUnits="userSpaceOnUse" x="245" y="-77" width="92" height="1827">
<path d="M245.335 1749.2H336.991V-76.9999H245.335V1749.2Z" fill="url(#paint0_linear_10_1889)"/>
</mask>
<g mask="url(#mask0_10_1889)">
</g>
<defs>
<linearGradient id="paint0_linear_10_1889" x1="245.339" y1="836.103" x2="336.991" y2="836.103" gradientUnits="userSpaceOnUse">
<stop/>
<stop offset="1" stop-color="white"/>
</linearGradient>
</defs>
</svg>
